# xmcd
#
# Track frame offsets:
#	150
#	18076
#	35310
#	54364
#	71008
#	90498
#	103351
#	126266
#	147452
#	169666
#	189905
#	213507
#	234053
#	256476
#	277749
#
# Disc length: 3998 seconds
#
# Revision: 1
# Processed by: cddbd v1.5.2PL0 Copyright (c) Steve Scherf et al.
# Submitted via: audiograbber 1.83.01
#
DISCID=c80f9c0f
DTITLE=Walking Papers - Walking Papers
DYEAR=1900
DGENRE=
TTITLE0=Already Dead
TTITLE1=The Whole World's Watching
TTITLE2=Your Secret's Safe With Me
TTITLE3=Red Envelopes
TTITLE4=Leave Me In The Dark
TTITLE5=The Butcher
TTITLE6=Two Tickets And A Room
TTITLE7=I'll Stick Around
TTITLE8=Capital T
TTITLE9=A Place Like This
TTITLE10=Independence Day
TTITLE11=Already Dead (Live)
TTITLE12=Two Tickets And A Room (Live)
TTITLE13=Leave Me In The Dark (Live)
TTITLE14=Whole World's Watching (Live)
EXTD=
EXTT0=
EXTT1=
EXTT2=
EXTT3=
EXTT4=
EXTT5=
EXTT6=
EXTT7=
EXTT8=
EXTT9=
EXTT10=
EXTT11=
EXTT12=
EXTT13=
EXTT14=
PLAYORDER=
